<?xml version="1.0" standalone="no"?>
<!DOCTYPE svg PUBLIC "-//W3C//DTD SVG 20010904//EN"
 "http://www.w3.org/TR/2001/REC-SVG-20010904/DTD/svg10.dtd">
<svg version="1.0" xmlns="http://www.w3.org/2000/svg"
 width="2418.000000pt" height="3000.000000pt" viewBox="0 0 2418.000000 3000.000000"
 preserveAspectRatio="xMidYMid meet">

<g transform="translate(0.000000,3000.000000) scale(0.100000,-0.100000)"
fill="#000000" stroke="none">
<path d="M15280 29454 c0 -12 11 -76 25 -142 58 -288 79 -559 72 -935 -9 -456
-56 -779 -178 -1227 -89 -324 -252 -714 -448 -1075 -9 -16 -29 -49 -44 -72
-15 -24 -27 -45 -27 -47 0 -3 -13 -25 -30 -49 -16 -25 -30 -47 -30 -51 0 -22
-286 -419 -414 -575 -161 -195 -605 -661 -631 -661 -5 0 -36 -26 -70 -57 -65
-62 -162 -145 -285 -243 -41 -33 -82 -67 -90 -74 -15 -14 -206 -169 -225 -183
-6 -5 -33 -27 -60 -51 -28 -24 -54 -46 -60 -50 -5 -4 -50 -41 -98 -82 -49 -41
-98 -80 -109 -86 -11 -7 -36 -27 -56 -47 -21 -19 -44 -38 -54 -43 -9 -5 -37
-28 -62 -51 -24 -24 -48 -43 -52 -43 -4 0 -31 -21 -60 -47 -30 -27 -81 -70
-114 -98 -33 -27 -81 -68 -107 -90 -26 -22 -52 -43 -58 -47 -5 -4 -32 -26 -60
-50 -27 -24 -56 -47 -63 -53 -8 -5 -35 -28 -60 -51 -26 -22 -56 -47 -68 -55
-11 -8 -43 -33 -70 -56 -27 -23 -70 -59 -95 -80 -132 -109 -205 -170 -348
-290 -86 -73 -182 -156 -213 -184 -31 -28 -70 -60 -85 -72 -15 -12 -50 -43
-78 -68 -27 -26 -68 -62 -90 -79 -22 -17 -67 -57 -100 -89 -33 -31 -73 -67
-90 -80 -16 -12 -73 -64 -125 -115 -52 -50 -108 -101 -124 -114 -40 -31 -483
-468 -646 -638 -120 -125 -184 -196 -326 -361 -171 -200 -406 -529 -508 -713
-111 -200 -165 -318 -232 -512 -122 -352 -144 -693 -63 -973 26 -89 72 -222
90 -262 10 -24 19 -48 19 -54 0 -11 180 -378 228 -464 39 -69 96 -167 142
-240 14 -22 31 -52 39 -67 8 -16 18 -28 23 -28 4 0 8 -6 8 -13 0 -7 9 -23 20
-35 11 -12 20 -24 20 -28 0 -9 207 -316 281 -416 19 -25 45 -63 59 -83 14 -20
39 -54 55 -75 17 -22 44 -58 60 -80 53 -72 93 -124 130 -170 20 -25 70 -88
111 -140 40 -52 92 -117 114 -145 23 -27 66 -81 96 -120 31 -38 75 -92 99
-120 24 -27 94 -111 157 -185 142 -170 275 -325 353 -410 33 -36 76 -84 95
-106 44 -52 200 -224 294 -325 39 -41 86 -93 105 -115 19 -21 80 -86 135 -144
56 -58 114 -120 129 -139 41 -53 719 -733 724 -727 3 2 -9 19 -26 37 -17 17
-31 37 -31 42 0 6 -9 20 -19 31 -20 22 -73 96 -165 232 -30 44 -62 87 -71 94
-8 7 -15 17 -15 23 0 6 -7 19 -17 29 -9 10 -21 27 -27 37 -6 11 -34 52 -61 93
-138 200 -185 269 -185 273 0 2 -28 46 -61 97 -77 116 -118 180 -155 241 -16
26 -48 77 -71 113 -24 36 -43 68 -43 71 0 3 -14 25 -30 50 -17 24 -30 46 -30
48 0 2 -13 24 -30 48 -16 25 -30 48 -30 51 0 4 -27 51 -60 105 -33 55 -60 102
-60 107 0 4 -6 15 -14 23 -8 9 -30 46 -50 84 -54 101 -98 182 -154 285 -28 51
-67 125 -86 165 -20 40 -40 79 -45 87 -13 21 -151 309 -151 315 0 3 -15 38
-34 77 -106 231 -180 416 -259 658 -89 268 -132 448 -169 700 -15 107 -15 454
1 540 53 292 240 733 447 1055 24 39 47 77 51 85 4 8 9 17 13 20 13 10 110
159 110 170 0 5 3 10 8 10 4 0 22 21 40 48 18 26 48 67 67 92 19 25 46 61 59
80 13 19 35 46 50 59 14 14 26 30 26 36 0 6 16 27 36 46 20 18 44 46 53 60 20
33 70 93 146 178 33 37 69 78 80 93 32 41 143 164 240 267 50 53 115 123 144
156 84 94 793 804 921 923 63 59 207 198 320 308 113 111 230 224 260 250 30
27 127 119 215 205 88 86 187 181 220 210 33 30 154 147 270 260 115 114 241
235 280 270 78 72 579 572 610 611 11 13 45 51 75 85 113 125 132 149 251 318
68 97 173 257 189 290 8 17 19 36 25 44 14 19 96 170 143 266 37 74 62 128 99
215 8 19 19 44 24 55 36 84 97 262 168 490 59 188 122 513 165 855 3 25 13
162 21 306 13 229 13 291 0 505 -37 629 -147 1114 -335 1489 -58 117 -92 168
-164 245 -44 48 -55 56 -56 39z"/>
<path d="M18605 23653 c-160 -36 -934 -287 -1225 -398 -25 -9 -70 -26 -100
-37 -68 -25 -82 -30 -145 -56 -27 -11 -99 -39 -160 -62 -60 -23 -117 -46 -127
-51 -9 -4 -69 -29 -134 -55 -65 -25 -125 -50 -133 -54 -9 -5 -32 -15 -51 -23
-19 -8 -62 -27 -95 -42 -33 -15 -69 -31 -80 -35 -46 -20 -154 -69 -210 -95
-77 -35 -587 -289 -640 -318 -22 -13 -78 -43 -125 -68 -147 -78 -204 -111
-237 -135 -17 -13 -35 -24 -40 -24 -8 0 -56 -29 -280 -165 -93 -57 -417 -271
-445 -294 -7 -6 -80 -61 -163 -122 -82 -62 -164 -123 -182 -138 -17 -14 -51
-42 -74 -61 -23 -19 -52 -41 -63 -49 -12 -8 -49 -42 -83 -74 -34 -33 -76 -69
-92 -81 -35 -24 -403 -396 -473 -478 -70 -82 -168 -205 -212 -267 -21 -30 -42
-59 -47 -65 -34 -41 -103 -149 -176 -275 -42 -72 -163 -312 -186 -371 -10 -25
-22 -54 -27 -65 -54 -123 -134 -415 -161 -585 -30 -195 -44 -547 -28 -680 29
-233 51 -358 94 -530 40 -156 86 -290 177 -515 51 -123 171 -358 235 -458 15
-23 28 -44 28 -47 0 -7 173 -266 188 -282 6 -8 17 -21 22 -30 10 -16 48 -70
220 -311 44 -62 88 -123 97 -137 10 -14 31 -43 47 -65 16 -22 59 -83 95 -136
36 -53 73 -102 81 -109 8 -7 15 -18 15 -25 0 -6 9 -20 20 -30 11 -10 20 -24
20 -30 0 -7 7 -18 15 -25 9 -7 23 -28 31 -46 9 -19 20 -34 25 -34 5 0 9 -4 9
-9 0 -5 22 -43 49 -83 27 -41 61 -97 76 -124 14 -27 39 -69 54 -94 23 -40 76
-155 125 -275 87 -214 116 -506 71 -740 -27 -141 -183 -506 -280 -655 -34 -52
-115 -189 -115 -194 0 -2 -24 -39 -52 -81 -29 -42 -58 -85 -64 -96 -6 -10 -18
-27 -27 -37 -10 -10 -17 -22 -17 -26 0 -5 -11 -22 -26 -40 -39 -48 -86 -111
-114 -151 -14 -20 -44 -59 -67 -86 -42 -49 -52 -69 -34 -69 5 0 56 31 113 68
57 38 110 71 118 75 8 4 33 21 55 37 70 53 126 90 134 90 4 0 18 11 31 25 13
14 29 25 36 25 6 0 18 7 25 16 8 9 30 27 49 40 35 24 63 46 177 135 78 61 82
64 198 161 107 90 401 363 413 384 4 7 50 57 102 111 52 54 120 130 151 168
88 110 161 208 167 224 3 8 15 26 26 39 12 13 30 40 41 60 18 33 34 59 82 137
92 151 176 366 216 555 43 206 47 303 22 486 -56 403 -231 851 -522 1336 -15
26 -41 70 -58 99 -16 28 -76 120 -132 204 -55 85 -103 158 -105 162 -3 7 -52
83 -275 420 -73 110 -224 370 -270 463 -92 189 -156 362 -190 520 -14 66 -18
128 -18 275 1 173 3 200 28 298 51 203 132 402 230 564 20 35 37 65 37 67 0 6
191 290 199 296 4 3 28 34 55 70 96 130 278 332 481 536 180 181 346 335 485
453 47 40 109 93 137 118 29 25 65 54 80 66 16 11 47 37 70 56 23 20 65 54 93
76 27 22 72 58 100 80 27 22 67 54 90 70 22 17 61 46 85 65 24 19 63 49 85 65
22 17 61 46 85 65 24 19 58 45 77 58 18 12 66 46 105 75 40 29 95 68 123 87
28 19 57 41 66 49 14 13 79 58 214 149 30 20 61 42 68 49 7 7 17 13 21 13 4 0
19 9 32 21 28 25 449 308 487 328 15 8 29 17 32 20 3 3 23 18 45 32 181 117
227 148 278 181 32 21 61 38 66 38 4 0 16 9 26 20 10 11 21 18 23 15 3 -3 18
7 34 22 15 15 28 24 28 20 0 -4 36 18 80 48 45 30 83 55 86 55 4 0 26 14 51
30 24 17 46 30 49 30 4 0 22 11 166 104 31 20 59 36 62 36 5 0 75 46 85 56 5
4 -4 4 -34 -3z"/>
<path d="M20354 14020 c-5 -5 -52 -10 -104 -11 -52 -1 -99 -5 -105 -9 -5 -4
-32 -10 -60 -13 -63 -7 -167 -29 -285 -60 -56 -15 -83 -24 -180 -59 -70 -26
-281 -130 -340 -168 -25 -16 -54 -34 -65 -39 -24 -10 -52 -41 -38 -41 5 0 33
6 63 14 92 24 220 46 266 46 23 0 45 4 49 9 7 13 650 7 735 -7 85 -13 261 -50
330 -69 30 -8 67 -18 83 -20 15 -3 30 -9 33 -14 3 -5 14 -9 24 -9 11 0 35 -9
55 -20 20 -11 41 -20 48 -20 16 0 182 -83 205 -102 9 -8 31 -20 47 -28 35 -17
82 -54 164 -127 32 -29 62 -53 67 -53 15 -1 64 -48 64 -62 0 -7 16 -29 36 -49
20 -20 41 -46 48 -57 6 -10 24 -39 41 -63 50 -75 130 -228 140 -272 4 -15 11
-30 16 -33 5 -3 9 -16 9 -29 0 -13 4 -26 9 -29 5 -3 11 -23 14 -43 3 -21 11
-63 17 -93 6 -30 15 -77 20 -105 36 -181 26 -533 -19 -712 -6 -24 -15 -60 -20
-80 -10 -44 -43 -144 -61 -188 -20 -48 -50 -116 -72 -165 -12 -25 -26 -56 -31
-70 -6 -14 -16 -32 -23 -40 -6 -8 -30 -52 -53 -97 -23 -45 -48 -87 -56 -93 -8
-7 -15 -21 -15 -31 0 -10 -5 -21 -11 -25 -10 -6 -87 -117 -115 -165 -6 -10
-18 -27 -27 -37 -10 -10 -17 -23 -17 -28 0 -6 -13 -23 -30 -39 -16 -16 -30
-34 -30 -40 0 -6 -22 -33 -50 -60 -27 -27 -50 -54 -50 -60 0 -6 -29 -40 -65
-75 -36 -35 -65 -69 -65 -75 0 -13 -502 -515 -515 -515 -6 0 -37 -27 -70 -60
-33 -33 -64 -60 -70 -60 -6 0 -37 -27 -70 -60 -33 -33 -64 -60 -70 -60 -6 0
-31 -20 -55 -45 -24 -25 -49 -45 -56 -45 -6 0 -29 -18 -50 -40 -22 -22 -44
-40 -49 -40 -6 0 -26 -14 -44 -31 -19 -17 -52 -42 -73 -55 -21 -14 -41 -31
-45 -39 -3 -8 -11 -15 -18 -15 -8 0 -27 -11 -43 -25 -17 -14 -34 -25 -39 -25
-5 0 -22 -13 -38 -30 -16 -16 -34 -30 -41 -30 -7 0 -24 -13 -37 -30 -14 -16
-31 -30 -38 -30 -7 0 -21 -7 -31 -17 -10 -9 -27 -21 -37 -27 -51 -30 -158
-106 -175 -125 -10 -11 -22 -19 -26 -16 -4 2 -18 -7 -30 -20 -13 -14 -29 -25
-36 -25 -6 0 -17 -7 -24 -15 -7 -9 -32 -25 -55 -35 -23 -10 -48 -26 -55 -35
-7 -8 -18 -15 -25 -15 -6 0 -20 -9 -30 -20 -10 -11 -23 -20 -30 -20 -7 0 -20
-9 -30 -20 -10 -11 -23 -20 -29 -20 -6 0 -44 -20 -84 -45 -40 -25 -76 -45 -81
-45 -5 0 -14 -7 -21 -15 -7 -9 -33 -25 -56 -35 -24 -11 -46 -25 -49 -31 -4 -5
-19 -15 -33 -21 -27 -11 -27 -12 -4 -16 13 -2 28 1 35 6 7 5 40 15 75 22 34 7
65 17 68 21 3 5 14 9 25 9 10 0 27 4 37 9 9 5 37 14 62 21 89 23 185 52 202
61 10 5 27 9 37 9 11 0 23 5 26 10 3 6 16 10 29 10 12 0 26 4 32 8 5 5 50 21
99 37 50 16 95 32 100 35 6 4 35 15 65 25 30 10 79 28 108 41 29 13 58 24 65
24 7 0 17 4 23 9 5 5 38 19 74 31 36 12 69 26 74 31 6 5 16 9 23 9 8 0 33 9
55 20 23 11 45 20 50 20 21 0 674 315 743 359 22 14 65 38 95 54 30 16 62 35
70 42 8 7 44 27 79 45 35 17 85 47 112 66 27 19 53 34 57 34 5 0 17 9 27 20
10 11 24 20 30 20 7 0 18 7 25 15 7 8 32 24 56 36 24 12 56 35 71 51 15 15 32
28 38 28 7 0 20 9 30 20 10 11 23 20 30 20 6 0 24 14 40 30 16 17 34 30 40 30
6 0 24 14 40 30 16 16 34 30 40 30 6 0 29 18 50 40 21 22 44 40 50 40 6 0 33
23 60 51 28 28 58 54 68 58 23 9 457 442 457 456 0 6 23 33 50 60 28 27 50 54
50 60 0 6 16 26 35 45 19 19 35 39 35 45 0 6 14 24 30 40 17 16 30 34 30 41 0
6 7 17 15 24 9 7 25 32 35 55 10 23 26 48 35 55 8 7 15 18 15 25 0 7 7 18 15
25 17 14 155 294 155 315 0 8 4 16 8 19 8 5 61 162 82 246 6 25 16 59 21 76 5
17 9 47 9 67 0 20 5 39 10 42 6 3 10 44 10 90 0 46 5 87 10 90 13 8 13 135 1
135 -5 0 -12 44 -15 98 -6 123 -15 194 -27 206 -5 6 -9 27 -9 48 0 21 -4 46
-9 56 -5 9 -19 51 -32 92 -31 102 -154 356 -193 399 -9 10 -16 22 -16 28 0 5
-9 18 -20 28 -11 10 -20 23 -20 29 0 6 -14 25 -30 43 -17 18 -30 36 -30 41 0
12 -238 256 -306 314 -83 69 -169 133 -199 147 -12 5 -27 16 -34 25 -7 9 -19
16 -26 16 -7 0 -18 7 -25 15 -7 9 -33 25 -56 35 -24 11 -45 24 -49 29 -6 10
-206 111 -221 111 -5 1 -27 9 -49 20 -22 11 -45 19 -51 20 -5 0 -28 8 -50 18
-21 10 -75 29 -119 41 -44 13 -89 27 -100 32 -11 4 -33 10 -50 13 -16 3 -52
10 -80 16 -74 16 -162 30 -230 37 -33 2 -65 9 -71 14 -14 11 -428 11 -440 -1z"/>
<path d="M8555 13730 c-3 -6 -49 -10 -104 -10 -53 0 -101 -4 -107 -10 -5 -5
-53 -10 -107 -11 -53 -1 -100 -5 -103 -10 -3 -5 -25 -9 -50 -9 -25 0 -53 -4
-62 -9 -9 -5 -50 -11 -89 -13 -40 -2 -76 -7 -79 -11 -4 -4 -23 -7 -41 -7 -19
0 -53 -4 -76 -9 -23 -5 -96 -19 -162 -31 -220 -39 -401 -76 -540 -112 -22 -5
-60 -12 -85 -15 -25 -3 -49 -9 -54 -14 -6 -5 -25 -9 -42 -9 -18 0 -36 -4 -39
-10 -3 -5 -21 -10 -40 -10 -19 0 -37 -4 -40 -10 -3 -5 -18 -10 -32 -10 -15 0
-40 -4 -57 -9 -17 -5 -49 -14 -71 -19 -91 -23 -131 -34 -147 -43 -10 -5 -25
-9 -35 -9 -16 0 -66 -14 -108 -31 -11 -4 -33 -10 -50 -14 -47 -10 -228 -65
-247 -76 -10 -5 -25 -9 -33 -9 -8 0 -23 -4 -33 -9 -9 -5 -51 -19 -92 -31 -41
-12 -83 -26 -92 -31 -10 -5 -27 -9 -37 -9 -11 0 -23 -4 -26 -10 -3 -5 -17 -10
-30 -10 -13 0 -27 -4 -30 -10 -3 -5 -15 -10 -25 -10 -11 0 -35 -9 -55 -20 -20
-11 -44 -20 -55 -20 -10 0 -22 -4 -25 -10 -3 -5 -15 -10 -26 -10 -10 0 -27 -4
-37 -9 -9 -5 -44 -19 -77 -31 -33 -13 -79 -31 -102 -41 -23 -11 -45 -19 -48
-19 -5 0 -26 -9 -120 -50 -11 -5 -55 -25 -97 -44 -43 -20 -82 -36 -88 -36 -6
0 -18 -4 -28 -10 -9 -5 -78 -39 -152 -76 -74 -36 -142 -71 -150 -78 -8 -7 -31
-20 -50 -30 -55 -28 -79 -42 -98 -59 -10 -10 -23 -17 -29 -17 -6 0 -16 -7 -23
-15 -7 -9 -28 -23 -46 -31 -19 -9 -34 -20 -34 -25 0 -5 -6 -9 -13 -9 -7 0 -52
-39 -100 -86 -88 -87 -127 -148 -127 -201 0 -30 58 -132 76 -133 6 0 21 -11
34 -25 24 -26 114 -75 137 -75 7 0 13 -4 13 -10 0 -5 6 -10 14 -10 8 0 40 -13
71 -30 31 -16 63 -30 71 -30 8 0 22 -4 32 -9 46 -25 351 -108 522 -142 30 -6
75 -15 100 -21 25 -5 63 -12 85 -14 22 -3 49 -9 60 -14 11 -5 43 -11 70 -14
28 -3 79 -10 115 -16 36 -6 90 -13 120 -16 30 -3 59 -10 65 -15 5 -5 36 -9 70
-9 34 0 65 -4 71 -9 5 -5 41 -11 79 -12 39 -2 77 -6 85 -10 8 -4 47 -8 85 -10
39 -2 75 -6 80 -10 6 -3 44 -9 85 -12 41 -4 116 -11 165 -17 113 -13 252 -26
420 -41 72 -6 136 -13 144 -15 8 -2 61 -7 119 -9 57 -3 143 -9 191 -15 47 -5
116 -10 152 -10 36 0 69 -3 72 -7 4 -4 74 -8 155 -11 81 -2 151 -7 157 -11 5
-4 84 -9 175 -10 91 -1 169 -6 175 -11 5 -4 104 -8 220 -9 115 -1 214 -6 220
-11 6 -5 116 -9 245 -10 138 0 238 -4 244 -10 6 -6 143 -10 352 -10 218 0 345
-4 349 -10 4 -6 92 -10 230 -10 138 0 226 4 230 10 4 6 143 10 384 10 232 0
381 4 387 10 5 5 95 10 214 10 113 1 209 5 215 10 6 5 90 10 186 11 96 0 179
5 184 9 6 5 66 10 135 13 69 2 132 7 140 10 8 3 74 8 145 11 72 2 137 7 145
10 8 3 69 8 135 11 66 3 235 17 375 30 140 13 307 29 370 35 165 16 370 36
595 61 44 4 116 11 160 14 44 3 89 10 100 15 11 5 58 12 105 15 47 3 123 8
170 11 47 3 89 10 95 15 5 5 48 9 96 9 48 0 91 5 94 10 3 6 39 10 79 10 39 0
76 4 81 9 6 6 42 11 80 12 39 1 77 5 85 10 9 4 47 9 85 10 39 1 75 6 80 10 6
4 42 9 80 12 39 2 77 7 85 10 8 4 47 8 87 11 39 2 75 6 80 9 4 2 37 8 73 11
36 4 144 19 240 32 96 14 209 29 250 34 41 5 104 14 140 20 101 17 209 31 280
36 36 3 69 10 74 15 6 5 34 9 62 9 29 0 56 5 59 10 3 6 37 10 74 10 37 0 71 4
77 9 9 9 61 17 184 27 36 3 69 10 74 15 6 5 30 9 55 9 63 0 166 35 191 65 7 8
18 15 25 15 6 0 20 9 30 20 10 11 22 20 28 20 5 0 29 14 54 30 24 17 47 30 50
30 4 0 17 10 29 21 13 12 41 31 62 43 22 11 63 34 92 49 29 16 74 44 101 63
27 19 52 34 55 34 3 0 25 13 48 28 22 15 57 35 77 44 19 10 43 26 53 37 10 11
22 18 26 16 4 -3 13 2 20 10 7 8 18 15 25 15 6 0 20 9 30 20 10 11 24 20 30
20 7 0 18 7 25 15 7 9 33 25 56 35 24 11 46 24 49 30 3 6 26 19 51 30 49 23
61 46 17 35 -16 -3 -55 -11 -88 -16 -79 -12 -148 -23 -270 -44 -55 -9 -118
-19 -140 -22 -22 -2 -47 -7 -55 -10 -8 -3 -37 -8 -65 -10 -27 -3 -54 -8 -60
-12 -5 -4 -37 -8 -69 -10 -33 -1 -68 -7 -77 -12 -10 -5 -44 -9 -76 -9 -33 0
-63 -4 -69 -9 -5 -5 -38 -12 -74 -15 -36 -3 -94 -8 -130 -11 -36 -3 -74 -10
-85 -15 -11 -5 -45 -11 -75 -14 -147 -14 -206 -22 -215 -28 -6 -3 -42 -8 -80
-9 -39 -1 -74 -6 -80 -10 -5 -4 -44 -10 -85 -13 -41 -3 -102 -10 -135 -16 -33
-5 -134 -18 -225 -30 -91 -11 -205 -24 -255 -30 -49 -6 -119 -15 -155 -20 -36
-5 -112 -14 -170 -20 -58 -6 -133 -15 -166 -20 -34 -6 -86 -10 -116 -10 -30 0
-58 -4 -64 -9 -8 -9 -57 -14 -284 -27 -52 -3 -99 -10 -105 -15 -5 -5 -53 -9
-106 -9 -55 0 -101 -4 -104 -10 -3 -5 -48 -10 -99 -10 -50 0 -96 -4 -101 -9
-6 -5 -57 -11 -115 -12 -58 -1 -110 -6 -115 -10 -6 -4 -62 -9 -125 -10 -63 -1
-119 -5 -125 -9 -5 -5 -55 -10 -110 -13 -55 -2 -107 -7 -115 -10 -8 -3 -60 -8
-116 -10 -55 -2 -105 -6 -110 -10 -5 -3 -61 -8 -124 -10 -63 -3 -122 -8 -130
-10 -8 -3 -94 -10 -191 -16 -96 -6 -236 -16 -310 -21 -394 -29 -752 -49 -984
-57 -99 -3 -184 -8 -190 -12 -5 -4 -215 -9 -465 -10 -250 -2 -458 -5 -462 -7
-10 -6 -520 -6 -538 0 -8 3 -269 8 -580 11 -627 6 -1237 26 -1500 50 -30 2
-125 9 -210 16 -85 6 -243 20 -350 31 -107 11 -217 22 -245 25 -27 2 -57 7
-65 10 -8 4 -18 6 -22 5 -4 -1 -36 3 -70 8 -35 6 -88 12 -118 15 -30 3 -71 10
-90 15 -19 5 -51 12 -70 15 -19 3 -57 10 -85 16 -27 5 -70 13 -95 18 -25 4
-65 15 -90 24 -25 9 -57 17 -72 17 -15 0 -30 5 -33 10 -3 6 -14 10 -24 10 -29
0 -192 88 -229 123 -40 39 -62 81 -62 119 0 50 20 111 50 153 16 22 41 57 55
78 14 21 36 42 48 46 12 5 38 25 56 45 19 20 40 36 46 36 7 0 20 9 30 20 10
11 24 20 30 20 7 0 18 7 25 15 6 7 33 25 58 38 245 125 391 197 403 197 8 0
41 14 74 30 33 17 65 30 72 30 7 0 28 9 48 20 20 11 44 20 55 20 10 0 22 5 25
10 3 6 13 10 21 10 8 0 34 9 56 20 23 11 49 20 58 20 9 0 20 4 25 8 6 5 30 14
54 21 25 7 56 18 70 24 14 5 35 12 46 14 11 2 24 8 29 13 6 6 20 10 32 10 13
0 26 5 29 10 3 6 17 10 30 10 13 0 27 5 30 10 3 6 17 10 30 10 13 0 27 5 30
10 3 6 15 10 26 10 10 0 27 4 37 9 16 8 46 17 147 43 22 5 48 14 57 19 10 5
25 9 34 9 9 0 44 9 78 19 33 11 81 25 106 32 25 6 59 16 75 20 201 59 335 94
408 107 48 9 87 20 87 24 0 12 -178 10 -185 -2z"/>
<path d="M7635 10388 c-22 -5 -57 -12 -78 -15 -20 -3 -40 -9 -43 -14 -3 -5
-16 -9 -29 -9 -13 0 -27 -4 -30 -10 -3 -5 -21 -10 -40 -10 -19 0 -37 -4 -40
-10 -3 -5 -17 -10 -30 -10 -13 0 -27 -4 -30 -10 -3 -5 -15 -10 -26 -10 -11 0
-39 -9 -61 -20 -23 -11 -47 -20 -52 -20 -6 0 -78 -34 -161 -76 -201 -102 -201
-102 -215 -119 -7 -8 -18 -15 -24 -15 -7 0 -25 -13 -41 -30 -16 -16 -34 -30
-41 -30 -15 0 -214 -199 -214 -215 0 -6 -9 -20 -20 -30 -11 -10 -20 -24 -20
-30 0 -7 -7 -18 -15 -25 -19 -16 -45 -68 -45 -91 0 -10 -4 -21 -10 -24 -5 -3
-10 -17 -10 -30 0 -13 -4 -26 -9 -29 -11 -7 -20 -65 -27 -165 -6 -79 14 -168
42 -192 8 -6 14 -17 14 -23 0 -7 14 -25 30 -41 17 -16 30 -35 30 -42 0 -7 5
-13 10 -13 6 0 33 -20 59 -45 26 -25 53 -45 58 -45 6 0 16 -7 23 -15 14 -17
67 -45 87 -45 7 0 13 -4 13 -9 0 -9 159 -91 177 -91 7 0 28 -9 47 -19 31 -18
343 -121 426 -141 65 -16 125 -31 156 -41 17 -5 42 -9 57 -9 14 0 29 -4 32
-10 3 -5 26 -10 50 -10 24 0 47 -4 50 -10 3 -5 21 -10 40 -10 19 0 37 -4 40
-10 3 -5 25 -10 49 -10 23 0 46 -4 51 -9 6 -5 35 -12 65 -15 30 -3 80 -8 110
-11 30 -3 64 -10 75 -15 11 -6 40 -12 65 -14 25 -2 52 -6 60 -9 44 -15 894
-117 973 -117 19 0 37 -3 40 -7 4 -3 58 -8 120 -10 61 -2 119 -6 127 -10 8 -3
76 -8 150 -10 74 -3 140 -9 145 -13 6 -4 71 -8 145 -9 74 -1 139 -6 145 -11 5
-4 98 -9 205 -9 111 -1 199 -6 204 -11 6 -6 129 -10 312 -10 191 0 305 -4 309
-10 8 -13 1517 -14 1531 0 5 5 93 10 204 10 107 1 201 5 210 10 10 5 70 10
136 11 65 0 124 5 129 9 6 5 55 10 108 11 54 1 100 6 103 11 3 4 32 8 65 8 33
0 90 4 127 10 37 5 105 14 152 20 160 20 385 51 475 65 209 33 403 67 445 76
25 6 70 13 100 16 30 3 59 9 64 14 6 5 28 9 51 9 23 0 45 4 51 9 5 5 29 11 54
14 25 3 69 11 98 16 133 27 159 32 195 38 20 3 40 9 43 14 3 5 19 9 36 9 17 0
49 5 72 11 50 13 51 13 351 85 132 31 244 61 249 65 6 5 25 9 42 9 18 0 36 5
39 10 3 6 18 10 32 10 15 0 40 4 57 9 17 5 65 19 106 31 41 12 83 26 92 31 10
5 31 9 47 9 17 0 33 5 36 10 3 6 17 10 30 10 13 0 27 5 30 10 3 6 18 10 32 10
15 0 40 4 57 10 17 5 124 40 239 76 114 37 207 70 207 75 0 5 -16 9 -36 9 -66
0 -190 50 -410 164 -18 9 -37 23 -44 31 -7 8 -18 15 -25 15 -6 0 -20 9 -30 20
-10 11 -23 20 -30 20 -7 0 -20 9 -30 20 -10 11 -23 20 -30 20 -7 0 -20 9 -30
20 -10 11 -23 20 -30 20 -7 0 -20 9 -30 20 -10 11 -23 20 -30 20 -6 0 -24 14
-40 30 -16 17 -34 30 -40 30 -6 0 -31 20 -55 45 -24 25 -49 45 -55 45 -6 0
-33 23 -60 50 -27 28 -54 50 -61 50 -6 0 -19 9 -29 20 -19 21 -64 27 -81 11
-5 -5 -35 -12 -66 -15 -32 -3 -84 -9 -115 -12 -32 -3 -63 -10 -68 -14 -6 -5
-33 -10 -60 -11 -28 -1 -54 -6 -60 -10 -5 -4 -32 -9 -60 -12 -27 -2 -57 -7
-65 -10 -8 -3 -35 -8 -60 -11 -47 -5 -74 -9 -355 -51 -183 -27 -344 -48 -495
-65 -52 -6 -106 -15 -120 -19 -14 -4 -57 -9 -95 -10 -38 -1 -74 -6 -80 -10 -5
-4 -46 -9 -90 -10 -44 -2 -88 -7 -97 -12 -9 -5 -57 -9 -107 -9 -49 0 -93 -4
-96 -10 -3 -5 -44 -10 -90 -10 -46 0 -87 -4 -90 -10 -3 -6 -49 -10 -104 -10
-53 0 -101 -4 -107 -10 -5 -5 -52 -10 -104 -11 -52 -1 -100 -5 -105 -9 -6 -5
-60 -10 -120 -11 -61 -1 -115 -6 -120 -10 -6 -4 -67 -10 -135 -12 -69 -2 -132
-7 -140 -10 -8 -4 -74 -8 -146 -10 -72 -2 -135 -7 -141 -10 -5 -3 -79 -8 -164
-11 -85 -3 -161 -7 -169 -10 -18 -6 -392 -24 -775 -37 -154 -6 -561 -12 -905
-15 -1064 -9 -1800 32 -2245 126 -27 6 -70 15 -95 20 -25 5 -65 14 -90 20 -25
6 -62 14 -83 17 -20 3 -40 9 -43 14 -3 5 -16 9 -29 9 -13 0 -27 5 -30 10 -3 6
-14 10 -23 10 -14 0 -89 32 -142 61 -8 5 -44 23 -79 41 -72 37 -192 149 -214
201 -33 76 -37 91 -37 147 0 85 33 208 60 225 5 3 17 23 26 43 9 20 55 76 102
123 46 48 80 89 76 91 -5 2 -27 0 -49 -4z"/>
<path d="M8325 7280 c-3 -5 -18 -10 -32 -10 -29 0 -142 -37 -157 -51 -6 -5
-20 -9 -32 -9 -13 0 -26 -4 -29 -10 -3 -5 -15 -10 -25 -10 -11 0 -35 -9 -55
-20 -20 -11 -42 -20 -49 -20 -8 0 -40 -13 -71 -30 -31 -16 -63 -30 -71 -30 -8
0 -14 -4 -14 -10 0 -5 -9 -10 -20 -10 -11 0 -20 -4 -20 -10 0 -5 -7 -10 -15
-10 -9 0 -33 -11 -55 -25 -22 -14 -43 -25 -48 -25 -5 0 -17 -9 -27 -20 -10
-11 -23 -20 -30 -20 -7 0 -20 -9 -30 -20 -10 -11 -23 -20 -30 -20 -6 0 -29
-18 -50 -40 -21 -22 -44 -40 -50 -40 -14 0 -105 -92 -105 -106 0 -6 -13 -23
-30 -39 -16 -16 -30 -34 -30 -41 0 -6 -7 -17 -15 -24 -9 -7 -13 -15 -10 -18 3
-3 -1 -12 -9 -21 -43 -48 -60 -237 -31 -322 35 -99 96 -203 158 -268 48 -49
188 -161 204 -161 7 0 13 -4 13 -9 0 -5 25 -21 55 -35 30 -15 57 -32 60 -37
15 -24 386 -192 455 -205 17 -4 33 -11 36 -15 3 -5 16 -9 29 -9 13 0 27 -4 30
-10 3 -5 17 -10 30 -10 13 0 27 -4 30 -10 3 -5 15 -10 26 -10 10 0 27 -4 37
-9 26 -13 86 -31 105 -31 10 0 25 -4 35 -9 9 -5 37 -14 62 -21 25 -6 59 -16
76 -21 17 -5 42 -9 57 -9 14 0 29 -4 32 -10 3 -5 21 -10 40 -10 19 0 37 -4 40
-10 3 -5 19 -10 36 -10 16 0 37 -4 47 -9 20 -11 479 -101 516 -101 14 0 28 -5
31 -10 4 -6 10 -8 15 -5 5 3 39 0 77 -6 144 -22 200 -30 263 -35 36 -4 70 -10
75 -13 6 -4 46 -9 90 -10 43 -1 87 -7 96 -12 10 -5 54 -9 98 -9 44 0 83 -4 86
-10 4 -6 53 -10 115 -10 62 0 111 -4 115 -10 4 -6 57 -10 126 -10 66 0 128 -4
137 -9 9 -5 96 -11 192 -13 97 -2 181 -8 188 -12 19 -11 1506 -10 1528 2 11 5
82 10 159 11 77 1 144 7 150 12 5 5 52 9 105 9 53 0 100 4 105 9 6 5 48 12 95
15 47 3 119 10 160 16 41 6 107 13 145 16 39 3 79 9 90 14 11 5 43 11 70 14
28 3 75 10 105 15 30 5 84 14 120 20 36 5 74 12 85 15 11 2 49 10 85 16 36 6
83 15 105 20 22 5 105 21 185 35 80 15 153 31 162 36 10 5 31 9 46 9 16 0 32
3 35 7 4 3 24 8 45 10 20 2 46 7 57 12 11 6 36 12 55 16 19 3 58 10 85 16 28
5 67 13 88 16 20 3 40 9 43 14 3 5 20 9 39 9 19 0 37 5 40 10 3 6 21 10 40 10
19 0 36 4 39 9 3 5 23 11 43 14 40 5 240 55 321 80 26 8 92 27 147 42 55 14
107 29 115 32 8 3 29 8 45 10 17 3 34 9 39 14 6 5 20 9 32 9 13 0 26 5 29 10
3 6 19 10 36 10 16 0 37 4 47 9 9 5 37 14 62 21 25 7 53 16 62 21 10 5 25 9
35 9 19 0 79 18 105 31 10 5 27 9 37 9 11 0 23 4 26 10 3 6 16 10 28 10 12 1
107 29 211 63 181 60 233 87 169 87 -16 0 -33 4 -39 8 -5 5 -29 14 -54 21 -45
13 -125 50 -380 175 -74 36 -141 66 -148 66 -6 0 -12 5 -12 10 0 6 -6 10 -13
10 -17 0 -75 28 -82 40 -3 5 -35 23 -70 40 -35 17 -67 35 -70 39 -2 5 -24 19
-47 31 -63 34 -79 43 -125 73 -24 15 -45 27 -47 27 -3 0 -25 14 -49 30 -25 17
-48 30 -52 30 -3 0 -25 13 -48 28 -23 16 -58 34 -77 42 -19 7 -43 20 -53 28
-9 8 -25 20 -36 26 -10 6 -37 23 -59 39 -47 31 -73 33 -134 13 -24 -8 -65 -20
-93 -26 -27 -6 -57 -13 -65 -17 -8 -3 -28 -7 -45 -9 -16 -3 -34 -9 -39 -14 -6
-6 -28 -10 -51 -10 -23 0 -45 -4 -51 -9 -9 -9 -47 -15 -159 -27 -27 -3 -59 -9
-70 -14 -23 -10 -30 -11 -300 -49 -38 -6 -101 -14 -140 -20 -38 -5 -72 -9 -75
-9 -3 1 -12 -2 -20 -5 -20 -8 -549 -65 -715 -77 -72 -5 -186 -14 -255 -20
-169 -15 -419 -28 -685 -36 -121 -3 -225 -10 -230 -14 -14 -12 -2086 -12
-2099 -1 -6 5 -123 11 -261 14 -248 6 -427 16 -600 36 -101 12 -346 54 -415
71 -25 6 -60 14 -78 17 -18 3 -35 9 -38 14 -3 5 -16 9 -29 9 -13 0 -27 5 -30
10 -3 6 -14 10 -24 10 -19 0 -165 72 -226 112 -75 48 -145 149 -145 208 0 16
-5 32 -10 35 -17 11 6 129 38 194 12 25 22 50 22 57 0 7 3 14 8 16 9 4 72 85
72 92 0 10 -18 7 -25 -4z"/>
<path d="M5595 5170 c-27 -5 -85 -9 -127 -9 -42 -1 -79 -4 -81 -9 -3 -4 -49
-9 -104 -10 -54 -2 -102 -8 -107 -13 -6 -5 -42 -9 -81 -9 -39 0 -75 -4 -81 -9
-5 -5 -38 -12 -74 -15 -36 -2 -94 -10 -130 -16 -36 -6 -90 -13 -120 -16 -30
-3 -59 -10 -65 -15 -5 -5 -32 -9 -60 -9 -28 0 -55 -4 -60 -9 -6 -5 -30 -11
-55 -14 -70 -9 -157 -24 -260 -47 -52 -12 -124 -27 -160 -35 -151 -31 -409
-99 -442 -116 -10 -5 -31 -9 -47 -9 -17 0 -33 -4 -36 -10 -3 -5 -21 -10 -40
-10 -19 0 -37 -4 -40 -10 -3 -5 -17 -10 -30 -10 -13 0 -27 -4 -30 -10 -3 -5
-15 -10 -26 -10 -10 0 -27 -4 -37 -9 -9 -5 -37 -15 -62 -21 -25 -7 -54 -16
-65 -20 -11 -5 -41 -14 -68 -20 -26 -7 -50 -17 -53 -21 -3 -5 -12 -9 -20 -9
-8 0 -33 -9 -57 -19 -23 -10 -76 -31 -117 -46 -41 -15 -79 -32 -84 -36 -6 -5
-17 -9 -26 -9 -17 0 -422 -201 -447 -222 -15 -12 -20 -15 -82 -53 -18 -11 -47
-32 -64 -47 -18 -15 -36 -28 -40 -28 -16 0 -153 -124 -204 -184 -82 -96 -143
-192 -143 -225 0 -11 -4 -23 -10 -26 -5 -3 -10 -17 -10 -30 0 -13 -5 -27 -10
-30 -6 -3 -10 -24 -10 -46 0 -21 -6 -48 -12 -59 -10 -16 -10 -24 0 -40 6 -11
12 -30 12 -43 0 -32 24 -77 55 -107 14 -13 25 -29 25 -35 0 -14 72 -85 86 -85
6 0 23 -13 39 -30 16 -16 34 -30 41 -30 6 0 17 -7 24 -15 13 -16 26 -23 162
-91 48 -24 92 -44 98 -44 6 0 19 -4 30 -10 11 -5 29 -14 40 -20 11 -5 25 -10
30 -10 6 0 30 -9 52 -20 23 -11 50 -20 59 -20 10 0 21 -4 24 -10 3 -5 15 -10
26 -10 10 0 27 -4 37 -9 9 -5 37 -14 62 -21 25 -6 72 -20 105 -30 33 -10 71
-21 85 -24 14 -3 79 -19 145 -37 66 -17 149 -37 185 -44 36 -7 133 -28 215
-45 83 -18 177 -36 210 -41 33 -6 87 -14 120 -20 33 -5 78 -12 100 -15 22 -3
44 -10 49 -15 6 -5 45 -9 87 -9 43 0 81 -4 84 -10 3 -5 30 -10 60 -10 30 0 57
-4 60 -10 3 -5 33 -10 66 -10 33 0 68 -4 77 -9 9 -5 44 -10 77 -12 33 -2 65
-6 70 -10 6 -4 48 -10 95 -13 47 -3 119 -11 160 -16 217 -30 427 -52 870 -91
135 -12 252 -24 260 -26 8 -3 76 -7 150 -10 74 -2 139 -8 145 -12 5 -4 66 -8
135 -10 69 -1 129 -6 135 -10 5 -5 84 -9 175 -10 90 -1 169 -6 175 -11 5 -4
84 -9 175 -9 91 -1 169 -6 174 -11 6 -6 99 -10 217 -10 128 0 210 -4 214 -10
4 -6 98 -10 250 -10 152 0 246 -4 250 -10 4 -6 128 -10 339 -10 228 0 335 -3
343 -11 15 -15 3188 -16 3206 -1 8 7 150 11 401 12 230 0 396 5 407 10 10 6
120 10 253 10 146 0 237 4 241 10 4 6 98 10 249 10 142 0 246 4 252 10 5 5 94
10 204 11 107 0 200 5 205 9 6 5 85 10 175 11 91 1 170 6 175 10 6 4 75 9 155
12 80 2 152 7 160 10 8 3 74 8 146 10 72 2 136 7 141 10 5 3 65 9 134 12 108
6 240 17 729 65 58 5 143 14 190 20 47 5 127 13 178 16 51 4 95 11 98 15 3 5
38 9 79 9 41 0 77 4 80 10 3 6 42 10 85 10 43 0 82 5 85 10 3 5 34 10 69 10
34 0 66 4 72 9 5 5 38 12 74 15 36 3 99 10 140 16 41 6 100 13 130 16 30 3 60
10 65 14 6 5 37 10 70 11 33 2 71 6 85 10 30 9 140 28 190 33 19 2 42 6 50 9
8 2 44 10 80 16 152 25 546 103 560 110 8 4 33 8 55 10 22 2 45 6 50 11 6 4
26 10 45 13 59 10 133 25 180 37 25 6 62 14 83 17 20 3 40 9 43 14 3 5 20 9
39 9 19 0 37 5 40 10 3 6 18 10 32 10 15 0 40 4 57 9 17 5 49 14 71 19 89 23
187 50 330 92 33 10 87 25 120 34 33 10 68 21 77 27 10 5 25 9 33 9 8 0 23 4
33 9 9 5 35 14 57 20 22 7 49 16 60 20 11 5 93 32 183 62 90 29 165 56 168 61
3 4 13 8 24 8 10 0 35 9 57 19 21 10 81 36 133 57 52 21 110 46 128 56 18 10
38 18 45 18 17 0 472 228 522 261 24 16 47 29 52 29 6 0 18 9 28 20 10 11 23
20 30 20 7 0 20 9 30 20 10 11 23 20 30 20 7 0 20 9 30 20 10 11 23 20 30 20
6 0 24 13 40 30 16 16 34 30 40 30 5 0 74 64 151 143 166 168 190 207 187 308
-2 106 -43 181 -166 306 -55 56 -104 100 -109 97 -4 -3 -11 2 -14 10 -6 15
-34 23 -34 11 0 -3 11 -23 25 -45 46 -73 82 -257 56 -283 -6 -6 -11 -19 -11
-30 0 -25 -35 -101 -55 -117 -8 -7 -15 -17 -15 -23 0 -15 -111 -127 -125 -127
-6 0 -24 -14 -40 -30 -16 -17 -34 -30 -41 -30 -6 0 -17 -6 -23 -14 -13 -16
-288 -153 -360 -181 -25 -9 -72 -26 -105 -37 -34 -11 -65 -24 -71 -29 -5 -5
-19 -9 -31 -9 -13 0 -26 -4 -29 -10 -3 -5 -17 -10 -30 -10 -13 0 -27 -4 -30
-10 -3 -5 -17 -10 -30 -10 -13 0 -27 -4 -30 -10 -3 -5 -18 -10 -32 -10 -14 0
-53 -9 -87 -19 -33 -11 -81 -25 -106 -31 -25 -7 -53 -16 -62 -21 -10 -5 -27
-9 -37 -9 -11 0 -46 -7 -78 -15 -32 -9 -78 -20 -103 -25 -25 -5 -94 -21 -154
-35 -158 -36 -460 -95 -488 -95 -13 0 -28 -4 -33 -9 -6 -5 -35 -12 -65 -15
-30 -3 -84 -10 -120 -16 -36 -6 -90 -13 -120 -16 -30 -3 -59 -10 -65 -15 -5
-5 -39 -9 -75 -9 -36 0 -70 -4 -75 -9 -6 -6 -37 -11 -70 -12 -33 -1 -65 -5
-70 -10 -6 -4 -37 -9 -70 -10 -33 -2 -65 -6 -70 -10 -6 -5 -40 -10 -75 -12
-36 -2 -72 -7 -80 -10 -8 -3 -40 -8 -70 -11 -30 -3 -91 -10 -135 -15 -185 -23
-346 -42 -430 -51 -49 -5 -128 -14 -175 -20 -47 -6 -139 -15 -205 -21 -66 -6
-158 -15 -205 -20 -47 -5 -132 -12 -190 -15 -58 -3 -112 -10 -120 -14 -8 -4
-64 -8 -125 -9 -60 -1 -114 -7 -119 -12 -6 -5 -62 -9 -126 -9 -64 0 -120 -4
-126 -9 -8 -9 -61 -13 -404 -27 -74 -3 -139 -9 -145 -14 -6 -5 -80 -10 -165
-11 -85 -1 -160 -5 -165 -9 -6 -5 -80 -10 -165 -11 -85 -1 -159 -6 -165 -10
-5 -4 -80 -9 -165 -12 -85 -2 -162 -7 -170 -10 -8 -4 -108 -8 -222 -10 -113
-3 -210 -7 -215 -10 -5 -3 -102 -8 -215 -11 -113 -3 -212 -8 -219 -11 -8 -2
-149 -9 -314 -15 -165 -6 -419 -15 -565 -21 -1327 -49 -3359 -71 -3885 -41
-126 7 -304 17 -395 22 -373 21 -791 50 -810 56 -8 3 -66 8 -129 10 -63 3
-118 7 -123 10 -5 4 -59 8 -120 11 -61 2 -118 8 -127 12 -9 4 -61 9 -116 10
-55 1 -104 6 -110 10 -5 4 -57 9 -114 10 -57 1 -114 7 -128 12 -13 5 -55 9
-93 9 -38 0 -72 5 -75 10 -3 6 -50 10 -105 10 -55 0 -102 4 -105 10 -3 6 -39
10 -80 10 -41 0 -77 5 -80 10 -3 6 -42 10 -85 10 -43 0 -82 5 -85 10 -3 6 -39
10 -79 10 -39 0 -76 4 -81 9 -6 5 -41 11 -80 12 -38 1 -77 5 -86 10 -8 4 -43
9 -78 11 -34 1 -65 6 -67 10 -3 5 -22 8 -43 8 -21 0 -62 5 -92 10 -30 6 -124
21 -209 35 -85 14 -193 32 -240 41 -47 8 -112 20 -145 26 -33 5 -82 14 -110
19 -27 6 -68 12 -90 16 -22 3 -44 9 -50 14 -5 5 -23 9 -40 9 -17 0 -35 4 -40
9 -6 5 -30 11 -55 14 -25 3 -65 10 -90 17 -25 6 -62 14 -83 17 -20 3 -40 9
-43 14 -3 5 -15 9 -26 9 -23 0 -81 17 -110 31 -10 5 -27 9 -37 9 -11 0 -23 5
-26 10 -3 6 -17 10 -30 10 -13 0 -26 4 -29 9 -3 5 -22 12 -42 16 -20 3 -45 11
-55 16 -11 5 -28 14 -39 19 -11 6 -25 10 -32 10 -19 0 -235 109 -249 126 -6 8
-17 14 -23 14 -14 0 -95 84 -114 117 -15 28 -16 162 -1 200 25 62 35 80 63
118 43 59 108 125 123 125 6 0 16 6 20 13 4 7 26 26 48 43 22 16 42 32 43 37
2 4 8 7 14 7 6 0 83 36 172 79 173 85 274 127 401 167 44 14 88 30 97 35 10 5
27 9 37 9 11 0 23 5 26 10 3 6 17 10 30 10 13 0 27 5 30 10 3 6 21 10 40 10
19 0 36 4 39 9 3 5 18 11 33 14 37 8 84 19 228 56 66 17 149 38 185 45 36 8
110 25 165 37 145 32 184 39 240 45 28 4 58 10 67 15 9 5 35 9 57 9 22 0 43 5
46 10 3 6 30 10 59 10 28 0 56 4 62 9 5 5 34 12 64 15 50 5 122 15 238 32 23
3 45 10 48 15 6 11 -510 10 -581 -1z"/>
<path d="M22838 3427 c-79 -71 -125 -107 -135 -107 -5 0 -22 -13 -38 -30 -16
-16 -34 -30 -40 -30 -7 0 -20 -9 -30 -20 -10 -11 -23 -20 -30 -20 -6 0 -22
-12 -36 -26 -13 -14 -42 -34 -65 -44 -22 -11 -47 -26 -54 -35 -7 -8 -18 -15
-25 -15 -6 0 -20 -9 -30 -20 -10 -11 -24 -20 -30 -20 -7 0 -18 -7 -25 -15 -7
-9 -32 -24 -54 -35 -23 -10 -58 -30 -80 -45 -77 -52 -698 -365 -726 -365 -8
-1 -42 -14 -75 -30 -33 -17 -63 -30 -68 -30 -4 0 -27 -9 -49 -20 -23 -11 -45
-20 -50 -20 -5 0 -27 -8 -51 -19 -72 -32 -200 -81 -252 -98 -27 -8 -67 -24
-88 -34 -22 -10 -47 -19 -57 -19 -11 0 -22 -4 -25 -10 -3 -5 -17 -10 -30 -10
-13 0 -27 -4 -30 -10 -3 -5 -17 -10 -30 -10 -13 0 -27 -4 -30 -10 -3 -5 -15
-10 -26 -10 -10 0 -27 -4 -37 -9 -9 -5 -35 -14 -57 -20 -22 -6 -96 -28 -165
-49 -69 -22 -168 -51 -220 -67 -52 -15 -111 -32 -130 -37 -19 -6 -43 -14 -52
-19 -10 -5 -31 -9 -47 -9 -17 0 -33 -4 -36 -10 -3 -5 -21 -10 -40 -10 -19 0
-37 -4 -40 -10 -3 -5 -21 -10 -40 -10 -19 0 -36 -4 -39 -9 -3 -5 -23 -11 -43
-14 -21 -3 -58 -10 -83 -17 -25 -6 -63 -15 -85 -21 -22 -5 -58 -14 -80 -20
-22 -6 -58 -14 -80 -18 -52 -11 -118 -26 -230 -51 -49 -11 -160 -34 -245 -51
-85 -17 -162 -33 -170 -36 -8 -3 -33 -7 -55 -9 -22 -2 -56 -8 -75 -14 -19 -5
-51 -12 -70 -15 -117 -20 -160 -26 -205 -31 -27 -3 -59 -9 -70 -14 -11 -5 -44
-12 -73 -15 -28 -3 -76 -7 -105 -10 -28 -3 -61 -10 -72 -15 -11 -5 -42 -12
-70 -15 -27 -3 -79 -9 -115 -14 -186 -26 -224 -30 -231 -26 -4 3 -10 1 -14 -5
-3 -5 -20 -10 -37 -10 -17 0 -58 -5 -92 -10 -75 -13 -514 -67 -651 -81 -213
-21 -303 -29 -380 -35 -44 -4 -84 -9 -90 -13 -5 -4 -55 -8 -110 -10 -55 -2
-104 -6 -110 -11 -5 -4 -66 -8 -135 -9 -69 -1 -129 -6 -134 -12 -6 -5 -67 -9
-137 -9 -75 0 -130 -4 -134 -10 -4 -6 -66 -10 -154 -10 -81 0 -151 -4 -157
-10 -5 -5 -83 -10 -174 -11 -91 0 -170 -5 -176 -10 -6 -5 -102 -9 -215 -10
-112 -1 -209 -5 -214 -10 -6 -4 -128 -9 -270 -10 -143 -1 -265 -6 -272 -11 -7
-6 -263 -10 -612 -10 -346 0 -603 -4 -607 -9 -7 -12 -611 -12 -618 0 -3 4
-280 8 -616 9 -350 0 -616 4 -623 10 -7 5 -151 10 -321 11 -171 1 -315 6 -320
10 -6 5 -123 10 -260 10 -137 1 -254 6 -260 10 -6 5 -90 10 -186 10 -99 1
-179 6 -184 11 -6 6 -92 10 -207 10 -121 0 -200 4 -204 10 -4 6 -73 10 -175
10 -102 0 -171 4 -175 10 -4 6 -66 10 -154 10 -81 0 -151 4 -156 9 -6 6 -72
11 -148 12 -76 2 -140 6 -143 11 -3 4 -47 8 -97 8 -51 0 -137 4 -192 10 -55 5
-161 14 -235 20 -74 6 -182 15 -240 20 -58 5 -166 14 -240 21 -74 6 -245 21
-380 35 -135 13 -263 24 -286 24 -22 0 -44 3 -47 6 -3 4 -48 9 -99 11 -51 2
-106 8 -122 14 -35 11 -136 12 -136 1 0 -4 44 -21 98 -36 53 -16 126 -37 162
-48 36 -10 83 -24 105 -29 22 -6 68 -19 101 -30 34 -10 73 -19 87 -19 14 0 29
-4 32 -10 3 -5 21 -10 40 -10 19 0 37 -5 40 -10 3 -6 21 -10 40 -10 19 0 37
-4 40 -10 3 -5 18 -10 32 -10 15 0 40 -4 57 -9 17 -5 50 -14 74 -20 23 -6 59
-16 80 -21 20 -6 51 -12 67 -14 17 -2 37 -6 45 -9 35 -12 285 -65 462 -98 27
-5 72 -14 100 -20 176 -35 368 -67 443 -75 28 -3 59 -9 70 -14 11 -5 43 -11
70 -14 28 -3 84 -10 125 -16 41 -6 102 -13 135 -16 33 -3 69 -9 80 -14 11 -5
47 -11 80 -14 33 -3 92 -10 130 -15 141 -20 232 -32 315 -41 47 -5 123 -14
170 -19 238 -28 774 -77 950 -86 69 -4 130 -10 135 -14 6 -4 80 -9 165 -10 85
-1 159 -6 165 -11 5 -4 93 -9 195 -9 101 -1 189 -6 195 -11 6 -5 127 -9 270
-10 155 0 263 -4 269 -10 14 -14 2018 -14 2032 0 6 6 120 10 289 10 153 1 284
5 290 10 6 5 103 10 215 11 113 1 210 5 215 10 6 4 89 9 185 10 96 2 180 6
185 10 6 4 76 9 156 11 80 3 149 7 155 10 5 4 66 9 134 12 69 2 132 7 140 9 8
3 85 10 170 16 85 6 202 16 260 21 58 6 157 15 220 21 111 10 208 19 410 40
52 5 129 12 170 15 41 3 84 9 95 14 11 5 52 11 90 14 165 11 221 18 240 26 11
5 56 12 100 14 109 7 218 20 231 28 5 4 41 8 80 9 38 1 74 5 79 9 6 4 39 10
75 14 36 3 94 10 130 15 111 17 204 30 210 29 3 -1 12 1 20 4 8 3 159 29 335
58 176 29 343 57 370 62 28 5 70 12 95 15 25 3 49 9 55 14 5 5 28 9 51 9 24 0
46 5 49 10 3 5 25 10 49 10 23 0 46 4 51 9 6 5 30 11 55 14 25 3 69 11 98 16
133 27 159 32 195 38 20 3 40 9 43 14 3 5 18 9 33 9 28 0 430 99 571 140 41
12 90 25 108 27 18 3 35 9 38 14 3 5 16 9 29 9 13 0 27 5 30 10 3 6 15 10 26
10 10 0 27 4 37 9 9 5 63 24 120 42 57 18 105 36 108 41 3 4 16 8 29 8 13 0
27 5 30 10 3 6 13 10 21 10 8 0 34 9 56 20 23 11 49 20 58 20 9 0 20 4 26 8 5
5 45 22 89 37 44 16 94 36 110 45 17 9 47 22 68 29 21 7 72 30 114 52 42 21
81 39 88 39 19 0 370 177 384 194 7 9 17 14 21 11 5 -3 11 -1 15 5 3 5 35 23
70 40 35 17 67 35 70 40 4 6 25 19 49 30 23 10 49 26 56 35 7 8 16 15 21 15
11 0 103 62 107 72 2 4 8 8 14 8 15 0 138 91 151 111 7 11 18 19 25 19 8 0 34
17 60 38 72 59 372 355 372 368 0 6 10 19 21 30 29 26 109 149 109 168 0 9 4
16 10 16 10 0 50 76 50 97 0 7 9 28 20 48 20 36 26 65 13 65 -5 0 -29 -19 -55
-43z"/>
<path d="M5760 1640 c0 -5 7 -10 16 -10 8 0 12 5 9 10 -3 6 -10 10 -16 10 -5
0 -9 -4 -9 -10z"/>
</g>
</svg>
