<?xml version="1.0" standalone="no"?>
<!DOCTYPE svg PUBLIC "-//W3C//DTD SVG 20010904//EN"
 "http://www.w3.org/TR/2001/REC-SVG-20010904/DTD/svg10.dtd">
<svg version="1.0" xmlns="http://www.w3.org/2000/svg"
 width="3000.000000pt" height="3000.000000pt" viewBox="0 0 3000.000000 3000.000000"
 preserveAspectRatio="xMidYMid meet">

<g transform="translate(0.000000,3000.000000) scale(0.100000,-0.100000)"
fill="#000000" stroke="none">
<path d="M13881 25413 c-24 -3 -60 -15 -80 -28 -20 -13 -59 -25 -88 -28 -29
-3 -72 -17 -95 -31 -24 -13 -77 -31 -118 -40 -41 -9 -106 -25 -145 -36 -38
-11 -71 -20 -72 -20 -2 0 -3 -6 -3 -12 -1 -18 -39 -44 -78 -51 -18 -4 -57 -18
-87 -32 -31 -14 -61 -25 -68 -25 -7 0 -21 -14 -32 -30 -11 -17 -28 -33 -38
-36 -10 -3 -31 -17 -45 -30 -55 -49 -117 -94 -131 -94 -25 0 -181 -79 -187
-94 -3 -8 -30 -27 -60 -42 -30 -15 -59 -33 -65 -41 -6 -7 -29 -18 -51 -24 -49
-13 -131 -61 -178 -104 -34 -32 -50 -41 -139 -85 -60 -30 -142 -87 -159 -111
-7 -10 -22 -19 -34 -19 -19 0 -66 -28 -96 -57 -7 -7 -22 -13 -31 -13 -10 0
-36 -16 -57 -35 -21 -19 -43 -35 -50 -35 -17 0 -52 -16 -89 -39 -16 -11 -37
-20 -46 -20 -8 -1 -33 -14 -55 -31 -21 -16 -43 -30 -48 -30 -4 0 -25 -13 -46
-30 -21 -16 -45 -30 -54 -30 -9 0 -16 -4 -16 -9 0 -5 -24 -20 -54 -34 -29 -14
-62 -37 -74 -51 -11 -14 -24 -26 -30 -26 -5 0 -15 -7 -22 -15 -13 -15 -112
-65 -129 -65 -4 0 -22 -13 -38 -29 -17 -16 -39 -32 -49 -35 -11 -3 -30 -16
-44 -29 -14 -13 -43 -26 -64 -30 -21 -3 -49 -17 -63 -32 -14 -14 -33 -25 -41
-25 -9 0 -25 -9 -36 -19 -12 -11 -35 -27 -52 -38 -16 -10 -52 -33 -79 -50 -27
-18 -57 -33 -68 -33 -10 0 -37 -13 -60 -29 -23 -15 -59 -33 -79 -40 -20 -7
-60 -34 -88 -62 -28 -27 -57 -49 -64 -49 -8 0 -16 -4 -18 -8 -1 -4 -32 -20
-68 -36 -36 -16 -88 -44 -117 -62 -28 -19 -58 -34 -65 -34 -8 0 -27 -13 -43
-30 -16 -16 -36 -30 -45 -30 -9 0 -31 -13 -50 -30 -19 -16 -41 -29 -48 -30 -7
0 -26 -13 -44 -30 -17 -16 -37 -30 -44 -30 -8 0 -54 -20 -103 -45 -49 -25 -93
-45 -98 -45 -4 0 -28 -19 -52 -41 -45 -41 -99 -69 -132 -69 -11 0 -44 -25 -74
-55 -30 -30 -67 -58 -83 -61 -15 -4 -43 -20 -62 -36 -19 -15 -46 -28 -61 -28
-16 0 -41 -14 -68 -40 -23 -22 -48 -40 -56 -40 -8 0 -15 -4 -15 -8 0 -9 -76
-52 -91 -52 -5 0 -23 -13 -41 -30 -17 -16 -40 -30 -50 -30 -26 0 -118 -46
-153 -76 -16 -13 -46 -30 -68 -36 -22 -7 -50 -22 -61 -33 -12 -12 -44 -35 -71
-51 -28 -15 -55 -33 -61 -39 -6 -5 -29 -19 -52 -30 -23 -11 -44 -27 -47 -35
-6 -16 -139 -80 -166 -80 -8 0 -26 -11 -39 -25 -14 -15 -35 -25 -51 -25 -38 0
-77 -19 -85 -42 -3 -10 -17 -25 -32 -32 -15 -8 -42 -28 -61 -45 -19 -17 -41
-31 -48 -31 -7 0 -13 -3 -13 -7 0 -15 -66 -51 -104 -56 -22 -4 -44 -15 -52
-26 -8 -11 -29 -22 -47 -26 -57 -12 -65 -15 -70 -35 -3 -11 -21 -27 -39 -35
-19 -7 -40 -21 -48 -29 -7 -9 -18 -16 -25 -16 -21 0 -75 -34 -80 -51 -3 -8
-22 -21 -43 -28 -20 -8 -59 -24 -87 -36 -27 -13 -58 -25 -67 -29 -10 -3 -18
-12 -18 -21 0 -8 -6 -15 -14 -15 -24 0 -83 -39 -100 -66 -9 -13 -23 -24 -30
-24 -7 0 -19 -7 -26 -15 -7 -8 -54 -36 -104 -61 -50 -25 -118 -59 -151 -76
-33 -16 -61 -34 -63 -39 -2 -5 -11 -9 -19 -9 -20 0 -94 -46 -143 -87 -20 -18
-42 -33 -47 -33 -5 0 -27 -13 -49 -28 -21 -16 -60 -36 -86 -46 -25 -9 -49 -23
-52 -31 -2 -7 -24 -23 -48 -34 -55 -26 -105 -55 -126 -74 -21 -17 -81 -47 -96
-47 -6 0 -26 -15 -43 -32 -47 -48 -64 -61 -133 -108 -76 -52 -93 -65 -134
-108 -17 -19 -48 -50 -69 -70 -79 -76 -123 -121 -147 -151 -14 -18 -40 -48
-57 -68 -18 -19 -33 -40 -33 -45 0 -6 -19 -27 -41 -48 -34 -31 -46 -53 -70
-126 -15 -48 -37 -100 -48 -115 -11 -14 -26 -51 -34 -81 -8 -31 -25 -66 -41
-81 -17 -17 -26 -37 -26 -58 0 -17 -12 -54 -26 -83 -17 -32 -30 -79 -35 -127
-5 -42 -18 -97 -29 -122 -16 -35 -23 -83 -30 -185 -11 -160 -11 -9403 0 -9558
5 -80 11 -106 28 -130 14 -19 25 -53 30 -96 6 -52 14 -73 34 -93 14 -14 28
-39 32 -56 3 -16 17 -45 31 -63 14 -18 25 -38 25 -44 0 -7 16 -29 35 -49 19
-20 35 -47 35 -59 0 -12 15 -39 32 -58 119 -133 119 -133 164 -171 19 -16 65
-60 103 -97 38 -37 82 -70 97 -74 16 -3 39 -17 52 -30 13 -13 38 -31 57 -38
19 -8 44 -24 57 -35 12 -12 30 -21 41 -21 22 0 53 -16 80 -40 10 -10 31 -20
46 -23 15 -3 47 -22 70 -41 24 -20 51 -36 62 -36 10 0 26 -11 35 -25 9 -14 34
-30 58 -37 22 -6 54 -22 69 -35 16 -13 34 -23 41 -23 7 0 30 -13 52 -30 21
-16 50 -30 64 -30 14 0 41 -13 60 -30 19 -16 46 -32 61 -35 15 -3 36 -17 49
-30 12 -13 36 -29 53 -36 18 -7 41 -20 52 -29 11 -10 37 -23 57 -29 20 -7 42
-19 50 -28 7 -9 33 -25 57 -36 25 -11 54 -28 65 -38 11 -10 35 -22 53 -25 19
-4 52 -22 74 -40 23 -19 50 -34 60 -34 11 0 33 -13 50 -29 17 -17 45 -33 62
-37 18 -3 45 -17 60 -30 16 -13 34 -24 41 -24 7 0 23 -11 36 -25 13 -14 42
-30 64 -36 23 -6 51 -21 63 -34 13 -13 38 -28 57 -34 19 -5 50 -21 69 -35 19
-14 37 -26 41 -26 3 0 23 -11 44 -24 20 -14 57 -32 81 -42 24 -9 54 -28 67
-41 13 -12 32 -23 42 -23 10 0 29 -11 42 -25 13 -14 42 -31 64 -37 23 -6 53
-24 68 -40 18 -18 37 -28 56 -28 19 0 40 -10 58 -29 16 -16 46 -34 66 -40 21
-7 44 -20 50 -30 7 -10 25 -21 40 -24 15 -4 38 -19 51 -33 13 -14 43 -30 67
-35 24 -6 50 -19 57 -29 8 -11 35 -26 61 -33 29 -9 51 -22 57 -34 5 -12 22
-24 39 -27 16 -3 43 -17 60 -30 17 -12 47 -28 67 -35 20 -6 46 -22 58 -35 13
-13 37 -27 54 -30 18 -4 42 -17 55 -31 13 -13 39 -29 58 -34 19 -5 48 -21 65
-35 17 -14 43 -29 57 -32 15 -4 36 -15 47 -25 12 -10 36 -24 55 -30 19 -7 50
-25 68 -41 18 -15 41 -28 50 -28 10 0 31 -13 46 -29 17 -17 42 -31 65 -35 21
-3 47 -17 60 -30 13 -14 37 -28 52 -31 16 -4 42 -17 57 -30 15 -12 45 -30 66
-39 22 -9 45 -25 52 -35 7 -10 28 -21 46 -25 18 -3 49 -20 70 -36 20 -17 45
-30 56 -30 10 0 33 -13 50 -29 17 -17 48 -35 69 -40 21 -6 43 -19 50 -29 6
-10 32 -25 58 -32 25 -7 52 -21 59 -32 8 -11 35 -26 61 -34 27 -8 54 -23 62
-34 8 -11 22 -20 33 -20 10 0 37 -16 60 -35 23 -19 53 -35 66 -35 14 0 35 -11
48 -25 12 -13 43 -33 67 -43 24 -11 50 -27 58 -36 7 -9 22 -16 32 -16 10 0 33
-13 51 -28 18 -16 48 -32 66 -35 18 -4 49 -20 70 -36 20 -16 48 -32 62 -36 14
-4 40 -21 58 -36 18 -16 42 -29 53 -29 12 0 33 -12 47 -28 15 -15 45 -33 66
-41 22 -7 49 -22 60 -33 12 -11 41 -25 64 -31 24 -6 48 -19 53 -29 5 -9 25
-20 45 -24 21 -4 41 -16 50 -30 9 -13 37 -30 66 -40 27 -9 52 -22 54 -29 3 -8
24 -21 47 -30 22 -9 54 -27 70 -41 16 -13 37 -24 47 -24 11 0 35 -14 53 -30
19 -17 44 -30 55 -30 12 0 36 -13 55 -29 18 -16 46 -33 63 -37 16 -3 40 -17
54 -30 14 -13 41 -29 60 -35 19 -7 44 -20 55 -30 11 -10 41 -27 66 -38 26 -12
52 -28 59 -36 15 -18 74 -45 99 -45 9 0 22 -9 29 -20 7 -11 21 -20 33 -20 11
0 32 -13 47 -29 15 -15 48 -36 74 -46 26 -9 49 -23 52 -31 3 -8 12 -14 21 -14
19 0 52 -18 85 -46 14 -12 39 -25 56 -28 17 -4 41 -18 54 -31 12 -13 37 -26
56 -30 20 -3 46 -19 61 -35 14 -16 38 -32 54 -35 16 -4 42 -17 57 -29 15 -13
48 -31 74 -41 26 -9 49 -24 52 -32 3 -8 29 -25 58 -40 29 -14 76 -38 103 -53
76 -44 107 -58 137 -64 15 -4 29 -15 33 -26 4 -12 21 -24 48 -31 23 -6 58 -21
77 -34 19 -13 49 -27 65 -31 17 -4 44 -18 61 -31 17 -13 58 -28 90 -34 32 -6
75 -21 94 -34 25 -17 60 -26 122 -34 50 -6 108 -20 135 -33 45 -21 64 -22 283
-26 307 -5 531 9 585 36 26 13 71 21 132 26 87 5 116 14 154 43 8 7 40 17 70
23 33 6 61 18 71 31 10 11 34 25 55 31 21 5 47 18 58 28 25 24 68 40 104 40
16 0 37 10 50 24 12 13 42 29 66 35 24 6 56 21 72 34 15 12 40 28 54 36 14 7
41 26 60 42 19 16 39 29 45 29 6 0 17 7 24 15 7 9 36 26 64 39 29 13 57 31 65
39 7 9 25 18 39 22 15 3 41 18 58 34 16 15 47 34 68 41 39 12 158 87 164 102
2 4 17 8 33 8 28 0 62 24 70 49 3 7 24 15 47 18 32 4 48 13 63 34 12 17 35 33
58 39 25 6 41 17 44 30 3 13 17 22 36 26 18 4 46 20 62 35 17 16 36 29 41 29
25 0 158 73 172 94 8 13 28 26 45 29 17 4 45 20 63 37 17 17 43 33 57 37 14 3
35 14 46 24 11 10 38 26 60 36 22 10 54 27 70 39 17 11 55 33 86 47 31 15 74
41 95 58 22 17 55 37 74 45 19 8 44 23 55 33 11 11 39 25 63 33 24 8 51 21 61
29 29 23 60 39 76 39 9 0 23 13 33 29 9 17 28 32 43 35 15 3 38 16 51 29 14
14 41 30 61 38 20 7 39 21 43 31 3 10 19 20 40 24 19 3 53 22 75 40 31 26 50
34 80 34 29 0 42 5 51 21 7 11 30 29 51 40 20 11 37 23 37 28 0 5 12 14 28 20
15 6 43 25 62 41 19 16 48 32 65 36 16 3 41 16 55 28 14 13 41 29 60 37 19 7
42 21 50 30 8 9 31 22 50 29 19 7 48 26 64 42 15 15 37 28 48 28 26 0 60 19
76 42 7 10 21 18 31 18 9 0 35 13 57 30 21 16 44 30 50 30 5 0 20 9 32 20 12
11 45 33 74 49 29 15 73 39 98 52 25 13 49 30 53 37 5 7 35 26 67 42 32 16 61
34 64 39 4 5 19 12 34 16 15 3 43 19 62 35 19 17 40 30 47 30 6 0 24 11 40 24
15 13 45 31 66 40 22 9 52 27 69 41 16 14 35 25 42 25 7 0 33 13 57 30 24 16
51 30 59 30 8 0 31 14 50 31 19 17 52 38 73 46 20 8 37 19 37 23 0 5 20 16 45
25 24 10 51 28 60 41 10 16 29 26 57 30 25 5 53 18 71 35 16 16 39 31 51 35
11 4 27 15 34 25 6 9 25 20 41 24 16 3 38 17 51 30 12 13 36 29 53 36 18 7 50
25 73 40 22 15 56 30 75 34 21 4 39 15 44 27 6 11 32 29 59 39 27 10 52 23 55
28 9 14 80 61 92 61 12 0 62 34 92 61 10 9 37 22 60 29 23 8 56 26 73 40 17
14 72 46 122 71 51 24 94 51 97 60 3 8 22 21 43 29 20 7 42 21 49 30 6 9 31
22 55 29 24 7 58 26 76 42 18 16 39 29 46 29 8 0 20 7 27 16 7 9 37 28 66 41
29 14 53 29 53 33 0 4 25 19 55 34 31 14 58 33 61 41 3 8 25 20 48 27 22 7 51
23 64 35 12 13 35 26 50 29 15 4 36 15 47 24 11 10 40 28 64 40 25 12 51 28
58 36 8 7 31 21 51 31 20 10 45 25 56 34 10 10 38 23 62 30 24 8 44 17 44 20
0 4 24 19 54 33 30 14 58 31 61 36 4 6 22 17 42 25 19 8 51 28 69 45 19 16 43
30 53 30 10 0 21 7 24 15 4 8 30 26 58 41 29 14 59 32 66 40 8 7 34 22 58 33
26 11 45 27 45 35 0 9 7 16 15 16 9 0 33 18 55 40 22 22 43 40 47 40 4 0 16
14 25 30 9 17 24 30 32 30 8 0 24 13 36 30 12 17 28 30 36 30 8 0 19 11 26 25
6 13 24 29 40 34 15 6 31 17 34 26 4 9 19 22 35 31 16 8 29 21 29 29 0 8 11
22 25 31 13 9 27 26 31 37 3 12 17 33 30 47 49 50 94 104 94 112 0 4 13 22 29
40 15 18 32 44 36 58 4 14 18 36 31 50 13 14 28 47 32 72 5 25 18 58 30 73 11
14 28 48 37 74 9 27 24 56 35 66 12 11 21 38 26 74 8 66 20 100 39 115 15 12
35 114 35 181 0 22 8 54 18 70 10 17 22 55 25 86 9 76 10 9083 1 9139 -4 25
-15 61 -25 80 -9 19 -22 72 -28 118 -7 54 -18 94 -31 112 -11 16 -23 50 -27
76 -4 31 -16 58 -35 79 -15 18 -28 39 -28 47 0 8 -16 45 -35 84 -19 38 -35 74
-35 80 0 5 -12 26 -26 45 -14 19 -31 48 -39 64 -7 17 -38 56 -69 88 -31 32
-56 65 -56 73 0 8 -11 23 -24 35 -13 11 -27 37 -30 57 -8 46 -17 58 -91 112
-33 25 -62 48 -65 51 -68 87 -219 239 -236 239 -7 0 -26 11 -42 25 -17 14 -39
25 -50 25 -11 0 -33 14 -49 30 -15 17 -32 30 -37 30 -10 0 -92 63 -116 89 -23
25 -89 61 -111 61 -10 0 -19 5 -19 10 0 6 -7 10 -15 10 -8 0 -15 4 -15 9 0 4
-21 14 -47 21 -47 12 -161 78 -184 106 -6 8 -19 14 -28 14 -9 0 -31 13 -50 29
-18 16 -52 35 -74 42 -22 7 -51 23 -63 36 -12 12 -35 25 -51 29 -15 3 -45 19
-65 35 -20 16 -43 29 -50 29 -8 0 -18 4 -24 9 -5 5 -45 28 -89 51 -44 23 -84
46 -89 51 -6 5 -15 9 -22 9 -12 0 -138 79 -164 103 -24 22 -122 74 -165 87
-22 7 -51 25 -65 41 -22 25 -152 89 -182 89 -14 0 -129 80 -168 117 -19 18
-38 33 -42 33 -5 0 -31 11 -60 25 -28 14 -58 25 -66 25 -7 0 -33 14 -57 30
-24 17 -47 30 -52 30 -5 0 -24 13 -43 30 -19 16 -40 29 -46 30 -6 0 -24 11
-40 25 -16 14 -40 28 -54 32 -14 3 -48 18 -76 34 -28 16 -58 29 -66 29 -8 0
-31 16 -52 35 -22 20 -51 38 -65 42 -14 3 -45 19 -68 35 -23 15 -46 28 -52 28
-16 0 -55 23 -64 37 -4 7 -28 21 -52 32 -25 11 -59 31 -77 44 -18 14 -77 46
-130 71 -54 26 -100 50 -102 55 -3 4 -35 22 -71 40 -36 18 -86 48 -110 67 -25
19 -50 34 -55 34 -6 0 -34 14 -63 30 -30 17 -62 30 -73 30 -11 0 -39 17 -62
38 -22 21 -72 53 -109 72 -37 18 -81 43 -98 55 -16 12 -47 28 -68 34 -21 7
-50 23 -65 35 -15 12 -64 38 -109 57 -46 19 -98 46 -115 61 -18 16 -39 28 -47
28 -18 0 -86 38 -139 77 -23 18 -73 47 -110 64 -72 35 -122 67 -135 87 -4 6
-14 12 -22 12 -7 0 -15 4 -17 8 -1 4 -34 23 -73 41 -82 39 -90 43 -175 94 -36
22 -74 47 -85 57 -11 10 -40 28 -65 40 -25 12 -53 26 -62 31 -10 5 -24 9 -31
9 -7 0 -23 9 -35 20 -12 12 -41 28 -64 36 -23 8 -52 23 -63 33 -11 10 -38 27
-60 37 -22 10 -71 38 -110 63 -38 25 -83 50 -100 56 -16 5 -51 25 -77 43 -26
17 -55 32 -65 32 -11 0 -28 8 -39 18 -10 10 -39 27 -64 39 -25 11 -54 30 -64
42 -11 12 -26 21 -35 21 -9 1 -34 14 -56 30 -22 16 -78 49 -125 72 -47 23
-107 54 -133 70 -26 15 -56 28 -65 28 -9 0 -49 26 -88 58 -40 32 -87 65 -105
72 -19 8 -37 19 -42 26 -4 7 -31 20 -59 30 -29 9 -64 28 -78 41 -26 25 -154
93 -175 93 -7 0 -29 14 -50 30 -21 17 -43 30 -50 30 -7 0 -23 10 -37 23 -32
29 -102 77 -114 77 -5 1 -27 9 -49 20 -22 11 -50 19 -62 20 -13 0 -23 5 -23
10 0 6 -5 10 -11 10 -12 0 -59 35 -100 75 -14 14 -31 25 -37 25 -6 0 -26 16
-43 35 -18 19 -42 35 -53 36 -12 0 -34 9 -51 20 -43 27 -73 39 -98 39 -27 0
-42 10 -50 33 -7 19 -86 57 -117 57 -10 0 -22 5 -25 10 -3 6 -17 10 -30 10
-55 0 -180 35 -217 61 -16 12 -43 19 -74 19 -34 0 -54 6 -70 21 -14 13 -44 23
-85 29 -61 9 -744 11 -838 3z m649 -6420 c18 -3 35 -13 37 -22 2 -10 33 -25
76 -39 97 -32 117 -42 117 -64 0 -10 7 -18 15 -18 8 0 15 -4 15 -10 0 -5 14
-10 30 -10 17 0 30 -4 30 -8 0 -4 21 -13 46 -20 25 -7 52 -19 60 -27 8 -8 34
-19 57 -26 23 -6 51 -22 62 -36 14 -16 34 -26 63 -30 30 -4 48 -13 58 -29 9
-12 30 -26 47 -30 18 -3 47 -19 65 -35 20 -18 44 -29 62 -29 18 0 38 -10 56
-30 16 -16 41 -32 56 -36 16 -3 41 -16 56 -28 15 -12 42 -28 60 -36 18 -7 47
-26 63 -41 17 -16 36 -29 43 -29 6 0 38 -14 71 -30 33 -16 65 -30 71 -30 5 0
19 -8 30 -19 29 -27 59 -41 87 -41 13 0 33 -11 45 -25 12 -13 38 -33 59 -44
21 -11 44 -29 51 -40 7 -12 23 -21 36 -21 13 0 35 -9 49 -20 14 -12 46 -29 69
-40 24 -10 57 -30 73 -44 16 -14 41 -28 56 -31 15 -4 38 -15 50 -26 12 -11 34
-22 48 -25 14 -4 42 -19 61 -34 19 -15 45 -30 58 -34 12 -4 30 -18 38 -31 9
-13 32 -29 52 -36 20 -7 48 -20 62 -29 14 -10 48 -23 75 -30 28 -7 57 -20 65
-29 8 -9 35 -27 60 -39 25 -12 50 -30 57 -41 7 -11 29 -22 52 -26 31 -5 41
-11 41 -26 0 -10 -7 -19 -15 -19 -8 0 -15 -4 -15 -10 0 -6 26 -10 58 -10 46 0
62 -5 86 -25 16 -14 38 -25 48 -25 26 0 59 -19 81 -46 9 -13 28 -26 40 -30 12
-3 31 -14 42 -23 11 -9 38 -23 60 -30 22 -7 57 -26 77 -42 20 -16 43 -29 50
-29 7 0 22 -10 33 -22 24 -27 59 -48 80 -48 8 0 23 -8 33 -17 43 -44 77 -63
108 -63 22 0 34 -5 34 -14 0 -7 13 -19 30 -26 16 -7 32 -20 35 -29 3 -10 16
-24 30 -31 14 -7 27 -21 30 -30 3 -9 19 -26 35 -38 21 -16 30 -31 30 -52 0
-28 6 -37 49 -72 13 -11 21 -29 21 -48 0 -20 9 -40 28 -58 25 -25 28 -35 33
-127 12 -172 10 -3647 -1 -3794 -9 -120 -13 -137 -36 -164 -14 -16 -28 -42
-31 -58 -3 -16 -16 -35 -28 -43 -13 -9 -26 -29 -30 -45 -3 -16 -16 -36 -28
-44 -44 -29 -95 -83 -111 -117 -15 -32 -53 -60 -82 -60 -6 0 -22 -11 -35 -24
-13 -13 -41 -29 -61 -35 -21 -7 -51 -26 -69 -42 -17 -16 -37 -29 -43 -29 -7 0
-35 -16 -62 -35 -27 -19 -58 -35 -69 -35 -11 0 -36 -13 -55 -29 -19 -15 -46
-32 -60 -36 -14 -4 -40 -21 -58 -36 -18 -16 -39 -29 -47 -29 -8 0 -27 -13 -42
-28 -16 -16 -41 -32 -57 -36 -17 -4 -45 -21 -63 -37 -19 -16 -41 -29 -51 -29
-9 0 -33 -14 -52 -30 -19 -16 -43 -30 -52 -30 -10 0 -32 -13 -50 -28 -18 -16
-45 -32 -61 -36 -15 -3 -39 -19 -53 -35 -14 -16 -41 -32 -60 -35 -19 -4 -34
-10 -34 -14 0 -4 -25 -23 -55 -41 -30 -18 -59 -39 -66 -47 -6 -7 -26 -16 -45
-20 -19 -3 -47 -19 -62 -35 -17 -19 -37 -29 -56 -29 -19 0 -42 -12 -67 -35
-22 -19 -46 -35 -54 -35 -8 0 -22 -11 -30 -24 -9 -13 -27 -27 -39 -30 -13 -3
-38 -19 -56 -36 -17 -16 -46 -32 -65 -36 -18 -3 -42 -13 -52 -22 -25 -22 -60
-42 -74 -42 -6 0 -24 -11 -41 -25 -16 -14 -42 -28 -56 -32 -15 -3 -38 -19 -51
-35 -13 -15 -34 -28 -46 -28 -12 0 -37 -11 -56 -25 -19 -13 -50 -33 -70 -44
-19 -11 -41 -26 -48 -34 -6 -8 -26 -21 -44 -28 -18 -7 -44 -25 -59 -41 -15
-16 -37 -28 -51 -28 -14 0 -30 -7 -38 -16 -20 -24 -65 -44 -99 -44 -23 0 -30
-4 -30 -20 0 -14 -16 -27 -55 -45 -30 -15 -55 -30 -55 -35 0 -4 -19 -15 -42
-25 -23 -9 -55 -27 -71 -41 -16 -14 -42 -28 -57 -30 -15 -3 -42 -19 -61 -35
-19 -16 -41 -29 -50 -29 -8 0 -25 -9 -37 -21 -13 -11 -43 -27 -67 -35 -24 -9
-51 -26 -60 -40 -13 -20 -23 -24 -69 -24 -42 0 -62 -6 -99 -31 l-46 -30 -143
3 c-137 3 -145 4 -182 31 -29 20 -51 27 -85 27 -38 0 -51 5 -74 30 -19 20 -38
30 -57 30 -18 0 -41 11 -61 29 -17 16 -47 32 -67 36 -20 4 -47 19 -63 36 -19
20 -37 29 -58 29 -21 0 -38 8 -52 24 -12 14 -40 32 -62 41 -22 9 -54 27 -70
41 -16 13 -35 24 -42 24 -8 0 -30 14 -48 30 -19 17 -44 30 -55 30 -12 0 -37
14 -55 30 -22 19 -46 30 -65 30 -23 0 -36 8 -52 30 -15 21 -36 34 -67 43 -25
6 -49 19 -54 29 -5 9 -26 22 -46 28 -21 7 -49 23 -63 35 -14 12 -38 26 -55 29
-16 4 -42 21 -57 37 -16 17 -37 29 -52 29 -16 0 -39 13 -60 35 -24 24 -45 35
-64 35 -19 0 -40 11 -60 30 -18 16 -38 30 -45 30 -8 0 -24 11 -36 24 -13 14
-40 28 -62 31 -23 4 -43 15 -49 26 -12 21 -60 49 -86 49 -9 0 -32 14 -51 30
-21 19 -45 30 -63 30 -20 0 -35 8 -50 30 -12 16 -28 30 -35 30 -8 0 -29 13
-47 28 -18 16 -48 32 -67 35 -18 4 -49 20 -68 37 -21 19 -45 30 -63 30 -20 0
-35 8 -50 30 -17 24 -29 30 -59 30 -32 0 -43 6 -64 34 -16 20 -38 36 -56 39
-17 4 -41 18 -53 32 -12 14 -30 25 -39 25 -10 0 -34 14 -52 30 -21 18 -46 30
-62 30 -17 0 -37 11 -55 30 -19 20 -43 33 -74 39 -31 6 -53 17 -67 35 -13 17
-34 28 -61 32 -29 5 -43 13 -51 31 -6 15 -22 27 -40 30 -15 3 -38 19 -50 34
-15 22 -29 29 -54 29 -31 0 -43 8 -81 54 -8 10 -22 14 -41 10 -23 -5 -35 0
-64 30 -25 25 -45 36 -65 36 -21 0 -43 13 -76 44 -25 25 -46 50 -46 56 0 6
-11 15 -24 22 -20 9 -26 21 -32 65 -5 44 -11 56 -29 63 -28 11 -35 29 -35 95
0 47 -4 59 -30 85 l-30 31 2 1842 3 1842 28 49 c24 43 27 59 27 140 0 96 3
104 35 122 11 6 25 24 30 40 6 16 17 40 26 54 9 14 25 48 35 75 12 33 35 66
68 97 28 26 60 57 71 68 12 11 26 20 33 20 11 0 36 11 72 32 8 5 28 16 44 26
17 9 40 27 53 40 13 12 42 31 64 42 22 12 49 30 59 40 11 11 29 20 41 20 25 0
54 15 80 41 10 10 29 19 42 19 40 0 65 11 70 31 3 11 21 26 41 34 19 8 39 21
43 28 4 8 24 22 43 33 19 10 42 26 50 35 20 21 48 35 86 42 18 3 49 18 69 32
21 14 42 25 46 25 11 0 97 62 129 93 14 14 43 30 65 37 22 7 49 20 60 30 11
10 44 25 73 35 30 10 52 23 52 31 0 8 6 14 14 14 8 0 33 19 55 41 32 33 45 40
64 35 19 -4 33 2 60 28 25 24 49 36 81 40 29 5 46 12 46 21 0 17 82 76 143
103 26 12 47 26 47 32 0 6 21 20 46 30 25 11 52 27 61 35 8 9 29 23 46 32 18
9 42 26 55 38 12 13 38 26 58 30 19 3 44 17 56 30 14 16 36 26 69 30 41 6 50
11 55 31 4 17 17 27 45 35 21 7 41 20 44 29 3 9 26 22 55 30 27 7 58 24 70 37
16 19 30 23 77 23 55 0 59 2 71 30 9 20 21 30 35 30 31 0 43 11 51 43 3 15 13
27 21 27 8 0 29 13 47 28 18 16 55 35 81 42 26 7 52 21 57 30 5 10 23 20 39
23 17 4 45 20 63 37 17 17 43 33 57 37 14 3 41 19 59 35 28 24 42 28 100 29
37 1 54 4 39 6 -20 3 -27 9 -25 21 3 14 20 18 103 23 160 8 260 9 295 2z"/>
</g>
</svg>
